<svg id="Слой_1" data-name="Слой 1" xmlns="http://www.w3.org/2000/svg" viewBox="0 0 1500 271">
  <defs>
    <style>
      .cls-1 {
        fill: #fff;
      }
    </style>
  </defs>
  <title>1</title>
  <g>
    <path class="cls-1" d="M511.66,233.25H309a52.74,52.74,0,0,1-52.6-53V91.15a52.74,52.74,0,0,1,52.6-53H459.06a52.74,52.74,0,0,1,52.6,53v61.51H290v46.66H511.66ZM478,118.72V72.06H290v46.66Z"/>
    <path class="cls-1" d="M800.37,233.25H597.69a52.74,52.74,0,0,1-52.6-53V38.13h33.66V199.32h188V38.13h33.66Z"/>
    <path class="cls-1" d="M1090.33,180.23a52.74,52.74,0,0,1-52.6,53H835.05V199.32h221.62V152.66H878.54a52.74,52.74,0,0,1-52.6-53V91.15a52.74,52.74,0,0,1,52.6-53h211.91V72.06H859.6v46.66h178.13a52.74,52.74,0,0,1,52.6,53Z"/>
    <g>
      <path class="cls-1" d="M1256.73,72.71v36h-9V96.89a30,30,0,0,1-25.17,12.79c-20,0-35.26-15.68-35.26-36s15.58-36,35.86-36a32.81,32.81,0,0,1,31.07,21h-11.39a22.15,22.15,0,0,0-19.68-11.39c-14.39,0-25.37,11.49-25.37,26.37s10.79,26.37,24.87,26.37c13,0,21.28-8.49,23.78-18.28h-24.88V72.71Z"/>
      <path class="cls-1" d="M1301.69,58v9.29a26,26,0,0,0-5.7-.4,14.3,14.3,0,0,0-14.78,14.68v27.07h-9.49V58.73h9v7.69a20.16,20.16,0,0,1,16.48-8.69A32.56,32.56,0,0,1,1301.69,58Z"/>
      <path class="cls-1" d="M1304.18,83.7c0-14.69,11.59-26,26.58-26s26.37,11.29,26.37,26-11.49,26-26.37,26S1304.18,98.39,1304.18,83.7Zm43.16,0c0-9.69-7.19-17.18-16.58-17.18S1314,74,1314,83.7s7.29,17.18,16.78,17.18S1347.34,93.39,1347.34,83.7Z"/>
      <path class="cls-1" d="M1413.57,58.73v49.95h-9v-8a19.92,19.92,0,0,1-16.48,9c-11.89,0-21.48-7.49-21.48-23.28V58.73h9.49V86.2c0,9.09,6.09,14.39,13.69,14.39,8.79,0,14.29-7,14.29-15.18V58.73Z"/>
      <path class="cls-1" d="M1479.5,83.7c0,15.18-10.29,26-23.58,26a21.3,21.3,0,0,1-16.88-8.49v24.47h-9.49V58.73h9v8.09a21.69,21.69,0,0,1,17.38-9.09C1469.21,57.73,1479.5,68.52,1479.5,83.7Zm-9.79,0c0-10-6.49-17.18-15.38-17.18s-15.59,7.19-15.59,17.18,6.6,17.18,15.59,17.18S1469.71,93.69,1469.71,83.7Z"/>
    </g>
    <polygon class="cls-1" points="20.5 72.07 103.72 72.07 128.96 72.07 128.96 166.86 128.96 233.25 162.62 233.25 162.62 132.93 162.62 72.07 223 72.07 256.67 38.12 20.5 38.12 20.5 72.07"/>
  </g>
</svg>
